<?xml version="1.0" standalone="no"?><!DOCTYPE svg PUBLIC "-//W3C//DTD SVG 1.1//EN" "http://www.w3.org/Graphics/SVG/1.1/DTD/svg11.dtd"><svg t="1649946061983" class="icon" viewBox="0 0 1024 1024" version="1.1" xmlns="http://www.w3.org/2000/svg" p-id="11061" xmlns:xlink="http://www.w3.org/1999/xlink" width="200" height="200"><defs><style type="text/css"></style></defs><path d="M139.636364 279.272727V178.086957C139.636364 74.201549 192.252964 36.426877 273.201581 36.426877h582.83004v226.656127" fill="#AFB8DB" p-id="11062"></path><path d="M851.98419 40.474308H180.110672l-24.284585 40.474309c-18.213439 15.744506 2.023715 40.029091-6.071146 60.266245 20.447621-9.292901 40.563352 0.153802 55.27981-11.697075 0-13.951494 31.331162-48.56917 90.4277-48.56917H851.98419V40.474308z" fill="#FFFFFF" opacity=".22" p-id="11063"></path><path d="M159.873518 279.272727V178.086957c0-83.976095 34.953613-121.422925 113.328063-121.422925h582.83004a20.237154 20.237154 0 0 1-20.237155-20.237155v226.656127h40.474309V36.426877a20.237154 20.237154 0 0 0-20.237154-20.237154H273.201581C172.582451 16.189723 119.399209 72.173787 119.399209 178.086957v101.18577h40.474309z" fill="#6E6E96" p-id="11064"></path><path d="M876.268775 979.478261H261.059289c-66.782609 0-121.422925-54.640316-121.422925-121.422925V157.849802s0 105.233202 153.802371 105.233202h582.83004v716.395257z" fill="#CCD6FF" p-id="11065"></path><path d="M293.438735 263.083004c-143.683794 0-149.754941-113.328063-149.754941-113.328063h712.347827v113.328063H293.438735z" fill="#E8EDFF" p-id="11066"></path><path d="M139.636364 157.849802v700.205534c0 66.782609 54.640316 121.422925 121.422925 121.422925V261.285945C139.737549 247.625866 139.636364 157.849802 139.636364 157.849802z" fill="#6E6E96" opacity=".15" p-id="11067"></path><path d="M405.285439 284.408917v379.151178l101.274814-100.481518 102.047873 100.481518V284.408917" fill="#FF9FA9" p-id="11068"></path><path d="M385.048285 284.408917v379.155225a20.245249 20.245249 0 0 0 34.492205 14.36838l101.274814-100.481518a20.237154 20.237154 0 0 1-28.453438 0.052617l102.047873 100.481517a20.237154 20.237154 0 0 0 34.431494-14.416948V284.408917h-40.474308v379.155225a20.237154 20.237154 0 0 1 34.431494-14.416948l-102.047874-100.481518a20.233107 20.233107 0 0 0-28.449391 0.052616l-101.274814 100.481518a20.229059 20.229059 0 0 1 22.034213-4.310514 20.229059 20.229059 0 0 1 12.457992 18.678894V284.408917h-40.47026z" fill="#6E6E96" p-id="11069"></path><path d="M385.048285 332.978087v379.155225a20.245249 20.245249 0 0 0 34.492205 14.36838l101.274814-100.481518a20.237154 20.237154 0 0 1-28.453438 0.052617l102.047873 100.481517a20.237154 20.237154 0 0 0 34.431494-14.416948V332.978087h-40.474308v379.155225a20.237154 20.237154 0 0 1 34.431494-14.416948l-102.047874-100.481518a20.233107 20.233107 0 0 0-28.449391 0.052616l-101.274814 100.481518a20.229059 20.229059 0 0 1 22.034213-4.310514 20.229059 20.229059 0 0 1 12.457992 18.678894V332.978087h-40.47026z" fill="#6E6E96" opacity=".15" p-id="11070"></path><path d="M551.838862 267.130435h40.474308v344.517312h-40.474308z" fill="#6E6E96" opacity=".15" p-id="11071"></path><path d="M159.873518 169.992095h696.158103v40.474308H159.873518z" fill="#FFFFFF" opacity=".61" p-id="11072"></path><path d="M293.438735 242.84585c-119.828237 0-128.914719-84.647968-129.554213-94.301091 0.372364 5.589502-1.594688 11.013059-5.41951 15.100964S149.285439 169.992095 143.683794 169.992095h712.347827a20.237154 20.237154 0 0 1-20.237155-20.237154v113.328063a20.237154 20.237154 0 0 1 20.237155-20.237154H293.438735z m582.83004 20.237154V149.754941a20.237154 20.237154 0 0 0-20.237154-20.237154H143.683794a20.233107 20.233107 0 0 0-20.208822 21.321865C123.547826 152.163162 132.435984 283.320158 293.438735 283.320158h562.592886a20.237154 20.237154 0 0 0 20.237154-20.237154z" fill="#6E6E96" p-id="11073"></path><path d="M293.438735 283.320158c-87.108806 0-115.675573-44.716016-125.03728-72.853755h7.463462L134.625644 172.230324a20.140016 20.140016 0 0 0-5.629976 4.07981 20.225012 20.225012 0 0 0-5.520696 15.003826C123.547826 192.63747 132.435984 323.794466 293.438735 323.794466h562.592886a20.237154 20.237154 0 0 0 20.237154-20.237154v-20.237154H293.438735z" fill="#EBEFFC" opacity=".47" p-id="11074"></path><path d="M876.268775 959.241107H261.059289c-55.793834 0-101.185771-45.391937-101.185771-101.185771V157.849802a20.237154 20.237154 0 0 0-40.474309 0c0 1.254704 1.991336 125.470356 174.039526 125.470356h582.83004a20.237154 20.237154 0 0 1-20.237154-20.237154v716.395257a20.237154 20.237154 0 0 1 20.237154-20.237154z m0-716.395257H293.438735c-128.250941 0-133.399273-76.464063-133.565217-85.182229-0.210466-11.098055-9.325281-20.059067-20.423336-19.949787C128.344032 137.819067 119.399209 146.7477 119.399209 157.849802v700.205534c0 78.111368 63.548711 141.660079 141.66008 141.660079h615.209486a20.237154 20.237154 0 0 0 20.237154-20.237154V263.083004a20.237154 20.237154 0 0 0-20.237154-20.237154z" fill="#6E6E96" p-id="11075"></path><path d="M261.059289 922.814229h615.209486v36.426878H261.059289z" fill="#6E6E96" opacity=".15" p-id="11076"></path></svg>