<?xml version="1.0" standalone="no"?><!DOCTYPE svg PUBLIC "-//W3C//DTD SVG 1.1//EN" "http://www.w3.org/Graphics/SVG/1.1/DTD/svg11.dtd"><svg t="1650350331142" class="icon" viewBox="0 0 1024 1024" version="1.1" xmlns="http://www.w3.org/2000/svg" p-id="7036" data-spm-anchor-id="a313x.7781069.0.i22" xmlns:xlink="http://www.w3.org/1999/xlink" width="200" height="200"><defs><style type="text/css"></style></defs><path d="M 863.113 0 H 160.887 A 161.064 161.064 0 0 0 0 160.887 v 702.225 a 161.064 161.064 0 0 0 160.887 160.887 h 702.225 a 161.064 161.064 0 0 0 160.887 -160.887 V 160.887 a 161.064 161.064 0 0 0 -160.887 -160.887 Z m 96.5324 863.113 a 96.6451 96.6451 0 0 1 -96.5324 96.5324 H 160.887 a 96.6451 96.6451 0 0 1 -96.5324 -96.5324 V 160.887 a 96.6451 96.6451 0 0 1 96.5324 -96.5324 h 702.225 a 96.6451 96.6451 0 0 1 96.5324 96.5324 Z" fill="#707070" p-id="7037" data-spm-anchor-id="a313x.7781069.0.i21" class="selected"></path><path d="M 776.941 484.062 H 416.087 a 24.1331 24.1331 0 0 0 0 48.2662 h 360.854 a 24.1331 24.1331 0 0 0 0 -48.2662 Z M 776.941 284.771 H 416.087 a 24.1331 24.1331 0 0 0 0 48.2662 h 360.854 a 24.1331 24.1331 0 0 0 0 -48.2662 Z M 776.941 677.642 H 416.087 a 24.1331 24.1331 0 0 0 0 48.2662 h 360.854 a 24.1331 24.1331 0 0 0 0 -48.2662 Z M 242.94 484.062 h -6.06545 a 24.1331 24.1331 0 0 0 0 48.2662 H 242.94 a 24.1331 24.1331 0 0 0 0 -48.2662 Z M 242.94 284.771 h -6.06545 a 24.1331 24.1331 0 0 0 0 48.2662 H 242.94 a 24.1331 24.1331 0 0 0 0 -48.2662 Z M 242.94 677.642 h -6.06545 a 24.1331 24.1331 0 0 0 0 48.2662 H 242.94 a 24.1331 24.1331 0 0 0 0 -48.2662 Z" fill="#707070" p-id="7038" data-spm-anchor-id="a313x.7781069.0.i20" class="selected"></path></svg>